<svg width="36" height="36" viewBox="0 0 36 36" fill="none" xmlns="http://www.w3.org/2000/svg">
<g clip-path="url(#clip0_517_1555)">
<path d="M17.9998 35.9997C27.9409 35.9997 35.9997 27.9409 35.9997 17.9998C35.9997 8.0588 27.9409 0 17.9998 0C8.0588 0 0 8.0588 0 17.9998C0 27.9409 8.0588 35.9997 17.9998 35.9997Z" fill="black"/>
<g clip-path="url(#clip1_517_1555)">
<path d="M20.0825 17.5334L26.275 10.335H24.8074L19.4306 16.5851L15.136 10.335H10.1826L16.6769 19.7864L10.1826 27.335H11.6502L17.3285 20.7346L21.8637 27.335H26.8171L20.0821 17.5334H20.0825ZM18.0725 19.8696L17.4144 18.9285L12.1789 11.4397H14.433L18.6579 17.4835L19.3159 18.4246L24.8081 26.2804H22.5542L18.0725 19.87V19.8696Z" fill="white"/>
</g>
</g>
<defs>
<clipPath id="clip0_517_1555">
<rect width="36" height="36" fill="white"/>
</clipPath>
<clipPath id="clip1_517_1555">
<rect width="17" height="17" fill="white" transform="translate(10 10.335)"/>
</clipPath>
</defs>
</svg>
